#tb 0: 1/44100
#media_type 0: audio
#codec_id 0: pcm_s16le
#sample_rate 0: 44100
#channel_layout_name 0: stereo
0,          0,          0,     3655,    14620, 0xb77e59de
0,       3655,       3655,     4096,    16384, 0x2487e03c
0,       7751,       7751,     4096,    16384, 0x2487e03c
0,      11847,      11847,     4096,    16384, 0x2487e03c
0,      15943,      15943,     4096,    16384, 0x2487e03c
0,      20039,      20039,     4096,    16384, 0x2487e03c
0,      24135,      24135,     4096,    16384, 0x2487e03c
0,      28231,      28231,     4096,    16384, 0x2487e03c
0,      32327,      32327,     4096,    16384, 0x2487e03c
0,      36423,      36423,     4096,    16384, 0x2487e03c
0,      40519,      40519,     4096,    16384, 0x2487e03c
0,      44615,      44615,     4096,    16384, 0x2487e03c
0,      48711,      48711,     4096,    16384, 0x2487e03c
0,      52807,      52807,     4096,    16384, 0x2487e03c
0,      56903,      56903,     4096,    16384, 0x2487e03c
0,      60999,      60999,     4096,    16384, 0x2487e03c
0,      65095,      65095,     4096,    16384, 0x2487e03c
0,      69191,      69191,     4096,    16384, 0x2487e03c
0,      73287,      73287,     4096,    16384, 0x2487e03c
0,      77383,      77383,     4096,    16384, 0x2487e03c
0,      81479,      81479,     4096,    16384, 0x2487e03c
0,      85575,      85575,     4096,    16384, 0x2487e03c
0,      89671,      89671,     4096,    16384, 0x2487e03c
0,      93767,      93767,     4096,    16384, 0x2487e03c
0,      97863,      97863,     4096,    16384, 0x2487e03c
0,     101959,     101959,     4096,    16384, 0x2487e03c
0,     106055,     106055,     4096,    16384, 0x2f076259
0,     110151,     110151,     4096,    16384, 0x45c8e0db
0,     114247,     114247,     4096,    16384, 0xc5b3e0e1
0,     118343,     118343,     4096,    16384, 0xc5b3e0e1
0,     122439,     122439,     4096,    16384, 0xc5b3e0e1
0,     126535,     126535,     4096,    16384, 0xc5b3e0e1
0,     130631,     130631,     4096,    16384, 0x0d6ac931
0,     134727,     134727,     4096,    16384, 0x875fcfb8
0,     138823,     138823,     4096,    16384, 0x697bb94d
0,     142919,     142919,     4096,    16384, 0xba39c168
0,     147015,     147015,     4096,    16384, 0x69ebe3d3
0,     151111,     151111,     4096,    16384, 0x55751fa7
0,     155207,     155207,     4096,    16384, 0xc7fe7078
0,     159303,     159303,     4096,    16384, 0x5391d517
0,     163399,     163399,     4096,    16384, 0x22dc499d
0,     167495,     167495,     4096,    16384, 0xef15ce6c
0,     171591,     171591,     4096,    16384, 0x73176062
0,     175687,     175687,     4096,    16384, 0x0722ecf6
0,     179783,     179783,     4096,    16384, 0x027c5ecc
0,     183879,     183879,     4096,    16384, 0x0ef2da79
0,     187975,     187975,     4096,    16384, 0x8f5f660b
0,     192071,     192071,     4096,    16384, 0x09bdfe2b
0,     196167,     196167,     4096,    16384, 0xa0fea363
0,     200263,     200263,     4096,    16384, 0x1ac54d86
0,     204359,     204359,     4096,    16384, 0x147208d0
0,     208455,     208455,     4096,    16384, 0x465ec85b
0,     212551,     212551,     4096,    16384, 0x07509b87
0,     216647,     216647,     4096,    16384, 0x9ee09297
0,     220743,     220743,     4096,    16384, 0x60247d5a
0,     224839,     224839,     4096,    16384, 0xd32e925f
0,     228935,     228935,     4096,    16384, 0xc8c27db0
0,     233031,     233031,     4096,    16384, 0xef5b92a6
0,     237127,     237127,     4096,    16384, 0x552b7d92
0,     241223,     241223,     4096,    16384, 0xe181927a
0,     245319,     245319,     4096,    16384, 0xe5757e00
0,     249415,     249415,     4096,    16384, 0x67c392b0
0,     253511,     253511,     4096,    16384, 0x25307cf5
0,     257607,     257607,     4096,    16384, 0x93d9920e
0,     261703,     261703,     2456,     9824, 0xfc1ea532
0,     264159,     264159,      441,     1764, 0x82047a4f
